<?xml version="1.0" encoding="UTF-8" standalone="no"?>
<!-- Created with Inkscape (http://www.inkscape.org/) -->

<svg
   width="113.67364mm"
   height="56.37999mm"
   viewBox="0 0 113.67364 56.37999"
   version="1.1"
   id="svg3223"
   inkscape:version="1.2.1 (9c6d41e410, 2022-07-14)"
   sodipodi:docname="stationware logo.svg"
   inkscape:export-filename="/home/pj/Projects/space-station-14/RobustToolbox/Resources/Textures/Logo/logo.png"
   inkscape:export-xdpi="67.034012"
   inkscape:export-ydpi="67.034012"
   xml:space="preserve"
   xmlns:inkscape="http://www.inkscape.org/namespaces/inkscape"
   xmlns:sodipodi="http://sodipodi.sourceforge.net/DTD/sodipodi-0.dtd"
   xmlns:xlink="http://www.w3.org/1999/xlink"
   xmlns="http://www.w3.org/2000/svg"
   xmlns:svg="http://www.w3.org/2000/svg"
   xmlns:rdf="http://www.w3.org/1999/02/22-rdf-syntax-ns#"
   xmlns:cc="http://creativecommons.org/ns#"
   xmlns:dc="http://purl.org/dc/elements/1.1/"><defs
     id="defs3217"><linearGradient
       inkscape:collect="always"
       id="linearGradient7569"><stop
         style="stop-color:#ffffff;stop-opacity:1;"
         offset="0"
         id="stop7565" /><stop
         style="stop-color:#ffffff;stop-opacity:1;"
         offset="1"
         id="stop7567" /></linearGradient><linearGradient
       x1="0"
       y1="0"
       x2="1"
       y2="0"
       id="linearGradient6765"
       gradientUnits="userSpaceOnUse"
       gradientTransform="matrix(0,9.4216614,9.4216614,0,427.48828,427.58643)"
       spreadMethod="pad"><stop
         id="stop6757"
         style="stop-color:#244573;stop-opacity:1"
         offset="0" /><stop
         id="stop6759"
         style="stop-color:#244570;stop-opacity:1"
         offset="0.03371" /><stop
         id="stop6761"
         style="stop-color:#006ab4;stop-opacity:1"
         offset="0.51374483" /><stop
         id="stop6763"
         style="stop-color:#006ab4;stop-opacity:1"
         offset="1" /></linearGradient><linearGradient
       x1="0"
       y1="0"
       x2="1"
       y2="0"
       id="linearGradient6716"
       gradientUnits="userSpaceOnUse"
       gradientTransform="matrix(0,9.4216614,9.4216614,0,427.48828,427.58643)"
       spreadMethod="pad"><stop
         id="stop6708"
         style="stop-color:#244573;stop-opacity:1"
         offset="0" /><stop
         id="stop6710"
         style="stop-color:#244570;stop-opacity:1"
         offset="0.03371" /><stop
         id="stop6712"
         style="stop-color:#006ab4;stop-opacity:1"
         offset="0.35953999" /><stop
         id="stop6714"
         style="stop-color:#006ab4;stop-opacity:1"
         offset="1" /></linearGradient><clipPath
       id="clipPath18"><path
         d="m 33,543.236 651.969,0 L 684.969,33 33,33 33,543.236 z"
         id="path20" /></clipPath><clipPath
       id="clipPath254"><path
         d="m 33,543.236 651.969,0 L 684.969,33 33,33 33,543.236 z"
         id="path256" /></clipPath><radialGradient
       cx="0"
       cy="0"
       r="1"
       fx="0"
       fy="0"
       id="radialGradient348"
       gradientUnits="userSpaceOnUse"
       gradientTransform="matrix(26.157211,0.4447632,0.4447632,-26.157211,434.48047,423.36426)"
       spreadMethod="pad"><stop
         id="stop350"
         style="stop-color:#7fa2d4;stop-opacity:1"
         offset="0" /><stop
         id="stop352"
         style="stop-color:#4084c2;stop-opacity:1"
         offset="0.83706999" /><stop
         id="stop354"
         style="stop-color:#4084c2;stop-opacity:1"
         offset="0.83706999" /><stop
         id="stop356"
         style="stop-color:#006ab4;stop-opacity:1"
         offset="1" /></radialGradient><radialGradient
       cx="0"
       cy="0"
       r="1"
       fx="0"
       fy="0"
       id="radialGradient372"
       gradientUnits="userSpaceOnUse"
       gradientTransform="matrix(26.174118,0.4450531,0.4450531,-26.174118,434.47168,423.36621)"
       spreadMethod="pad"><stop
         id="stop374"
         style="stop-color:#7fa2d4;stop-opacity:1"
         offset="0" /><stop
         id="stop376"
         style="stop-color:#4084c2;stop-opacity:1"
         offset="0.83706999" /><stop
         id="stop378"
         style="stop-color:#4084c2;stop-opacity:1"
         offset="0.83706999" /><stop
         id="stop380"
         style="stop-color:#006ab4;stop-opacity:1"
         offset="1" /></radialGradient><radialGradient
       cx="0"
       cy="0"
       r="1"
       fx="0"
       fy="0"
       id="radialGradient396"
       gradientUnits="userSpaceOnUse"
       gradientTransform="matrix(26.171158,0.4449921,0.4449921,-26.171158,434.47656,423.36523)"
       spreadMethod="pad"><stop
         id="stop398"
         style="stop-color:#7fa2d4;stop-opacity:1"
         offset="0" /><stop
         id="stop400"
         style="stop-color:#4084c2;stop-opacity:1"
         offset="0.83706999" /><stop
         id="stop402"
         style="stop-color:#4084c2;stop-opacity:1"
         offset="0.83706999" /><stop
         id="stop404"
         style="stop-color:#006ab4;stop-opacity:1"
         offset="1" /></radialGradient><radialGradient
       cx="0"
       cy="0"
       r="1"
       fx="0"
       fy="0"
       id="radialGradient420"
       gradientUnits="userSpaceOnUse"
       gradientTransform="matrix(26.174118,0.4450531,0.4450531,-26.174118,434.47168,423.36621)"
       spreadMethod="pad"><stop
         id="stop422"
         style="stop-color:#7fa2d4;stop-opacity:1"
         offset="0" /><stop
         id="stop424"
         style="stop-color:#4084c2;stop-opacity:1"
         offset="0.83706999" /><stop
         id="stop426"
         style="stop-color:#4084c2;stop-opacity:1"
         offset="0.83706999" /><stop
         id="stop428"
         style="stop-color:#006ab4;stop-opacity:1"
         offset="1" /></radialGradient><radialGradient
       cx="0"
       cy="0"
       r="1"
       fx="0"
       fy="0"
       id="radialGradient444"
       gradientUnits="userSpaceOnUse"
       gradientTransform="matrix(26.171158,0.4449921,0.4449921,-26.171158,434.47656,423.36523)"
       spreadMethod="pad"><stop
         id="stop446"
         style="stop-color:#7fa2d4;stop-opacity:1"
         offset="0" /><stop
         id="stop448"
         style="stop-color:#4084c2;stop-opacity:1"
         offset="0.83706999" /><stop
         id="stop450"
         style="stop-color:#4084c2;stop-opacity:1"
         offset="0.83706999" /><stop
         id="stop452"
         style="stop-color:#006ab4;stop-opacity:1"
         offset="1" /></radialGradient><radialGradient
       cx="0"
       cy="0"
       r="1"
       fx="0"
       fy="0"
       id="radialGradient468"
       gradientUnits="userSpaceOnUse"
       gradientTransform="matrix(26.163391,0.44487,0.44487,-26.163391,434.47852,423.36621)"
       spreadMethod="pad"><stop
         id="stop470"
         style="stop-color:#7fa2d4;stop-opacity:1"
         offset="0" /><stop
         id="stop472"
         style="stop-color:#4084c2;stop-opacity:1"
         offset="0.83706999" /><stop
         id="stop474"
         style="stop-color:#4084c2;stop-opacity:1"
         offset="0.83706999" /><stop
         id="stop476"
         style="stop-color:#006ab4;stop-opacity:1"
         offset="1" /></radialGradient><radialGradient
       cx="0"
       cy="0"
       r="1"
       fx="0"
       fy="0"
       id="radialGradient492"
       gradientUnits="userSpaceOnUse"
       gradientTransform="matrix(26.163391,0.44487,0.44487,-26.163391,434.47852,423.36621)"
       spreadMethod="pad"><stop
         id="stop494"
         style="stop-color:#7fa2d4;stop-opacity:1"
         offset="0" /><stop
         id="stop496"
         style="stop-color:#4084c2;stop-opacity:1"
         offset="0.83706999" /><stop
         id="stop498"
         style="stop-color:#4084c2;stop-opacity:1"
         offset="0.83706999" /><stop
         id="stop500"
         style="stop-color:#006ab4;stop-opacity:1"
         offset="1" /></radialGradient><radialGradient
       cx="0"
       cy="0"
       r="1"
       fx="0"
       fy="0"
       id="radialGradient516"
       gradientUnits="userSpaceOnUse"
       gradientTransform="matrix(26.157211,0.4447632,0.4447632,-26.157211,434.48047,423.36426)"
       spreadMethod="pad"><stop
         id="stop518"
         style="stop-color:#7fa2d4;stop-opacity:1"
         offset="0" /><stop
         id="stop520"
         style="stop-color:#4084c2;stop-opacity:1"
         offset="0.83706999" /><stop
         id="stop522"
         style="stop-color:#4084c2;stop-opacity:1"
         offset="0.83706999" /><stop
         id="stop524"
         style="stop-color:#006ab4;stop-opacity:1"
         offset="1" /></radialGradient><radialGradient
       cx="0"
       cy="0"
       r="1"
       fx="0"
       fy="0"
       id="radialGradient540"
       gradientUnits="userSpaceOnUse"
       gradientTransform="matrix(26.174118,0.4450531,0.4450531,-26.174118,434.47168,423.36621)"
       spreadMethod="pad"><stop
         id="stop542"
         style="stop-color:#7fa2d4;stop-opacity:1"
         offset="0" /><stop
         id="stop544"
         style="stop-color:#4084c2;stop-opacity:1"
         offset="0.83706999" /><stop
         id="stop546"
         style="stop-color:#4084c2;stop-opacity:1"
         offset="0.83706999" /><stop
         id="stop548"
         style="stop-color:#006ab4;stop-opacity:1"
         offset="1" /></radialGradient><radialGradient
       cx="0"
       cy="0"
       r="1"
       fx="0"
       fy="0"
       id="radialGradient564"
       gradientUnits="userSpaceOnUse"
       gradientTransform="matrix(26.171158,0.4449921,0.4449921,-26.171158,434.47656,423.36523)"
       spreadMethod="pad"><stop
         id="stop566"
         style="stop-color:#7fa2d4;stop-opacity:1"
         offset="0" /><stop
         id="stop568"
         style="stop-color:#4084c2;stop-opacity:1"
         offset="0.83706999" /><stop
         id="stop570"
         style="stop-color:#4084c2;stop-opacity:1"
         offset="0.83706999" /><stop
         id="stop572"
         style="stop-color:#006ab4;stop-opacity:1"
         offset="1" /></radialGradient><radialGradient
       cx="0"
       cy="0"
       r="1"
       fx="0"
       fy="0"
       id="radialGradient588"
       gradientUnits="userSpaceOnUse"
       gradientTransform="matrix(26.174118,0.4450531,0.4450531,-26.174118,434.47168,423.36621)"
       spreadMethod="pad"><stop
         id="stop590"
         style="stop-color:#7fa2d4;stop-opacity:1"
         offset="0" /><stop
         id="stop592"
         style="stop-color:#4084c2;stop-opacity:1"
         offset="0.83706999" /><stop
         id="stop594"
         style="stop-color:#4084c2;stop-opacity:1"
         offset="0.83706999" /><stop
         id="stop596"
         style="stop-color:#006ab4;stop-opacity:1"
         offset="1" /></radialGradient><radialGradient
       cx="0"
       cy="0"
       r="1"
       fx="0"
       fy="0"
       id="radialGradient612"
       gradientUnits="userSpaceOnUse"
       gradientTransform="matrix(26.171158,0.4449921,0.4449921,-26.171158,434.47656,423.36523)"
       spreadMethod="pad"><stop
         id="stop614"
         style="stop-color:#7fa2d4;stop-opacity:1"
         offset="0" /><stop
         id="stop616"
         style="stop-color:#4084c2;stop-opacity:1"
         offset="0.83706999" /><stop
         id="stop618"
         style="stop-color:#4084c2;stop-opacity:1"
         offset="0.83706999" /><stop
         id="stop620"
         style="stop-color:#006ab4;stop-opacity:1"
         offset="1" /></radialGradient><radialGradient
       cx="0"
       cy="0"
       r="1"
       fx="0"
       fy="0"
       id="radialGradient636"
       gradientUnits="userSpaceOnUse"
       gradientTransform="matrix(26.324234,0.4476013,0.4476013,-26.324234,434.47559,423.12988)"
       spreadMethod="pad"><stop
         id="stop638"
         style="stop-color:#7fa2d4;stop-opacity:1"
         offset="0" /><stop
         id="stop640"
         style="stop-color:#4084c2;stop-opacity:1"
         offset="0.83706999" /><stop
         id="stop642"
         style="stop-color:#4084c2;stop-opacity:1"
         offset="0.83706999" /><stop
         id="stop644"
         style="stop-color:#006ab4;stop-opacity:1"
         offset="1" /></radialGradient><radialGradient
       cx="0"
       cy="0"
       r="1"
       fx="0"
       fy="0"
       id="radialGradient660"
       gradientUnits="userSpaceOnUse"
       gradientTransform="matrix(26.163391,0.44487,0.44487,-26.163391,434.47852,423.36621)"
       spreadMethod="pad"><stop
         id="stop662"
         style="stop-color:#7fa2d4;stop-opacity:1"
         offset="0" /><stop
         id="stop664"
         style="stop-color:#4084c2;stop-opacity:1"
         offset="0.83706999" /><stop
         id="stop666"
         style="stop-color:#4084c2;stop-opacity:1"
         offset="0.83706999" /><stop
         id="stop668"
         style="stop-color:#006ab4;stop-opacity:1"
         offset="1" /></radialGradient><radialGradient
       cx="0"
       cy="0"
       r="1"
       fx="0"
       fy="0"
       id="radialGradient684"
       gradientUnits="userSpaceOnUse"
       gradientTransform="matrix(26.164352,0.4448853,0.4448853,-26.164352,434.47754,423.36328)"
       spreadMethod="pad"><stop
         id="stop686"
         style="stop-color:#7fa2d4;stop-opacity:1"
         offset="0" /><stop
         id="stop688"
         style="stop-color:#4084c2;stop-opacity:1"
         offset="0.83706999" /><stop
         id="stop690"
         style="stop-color:#4084c2;stop-opacity:1"
         offset="0.83706999" /><stop
         id="stop692"
         style="stop-color:#006ab4;stop-opacity:1"
         offset="1" /></radialGradient><radialGradient
       cx="0"
       cy="0"
       r="1"
       fx="0"
       fy="0"
       id="radialGradient708"
       gradientUnits="userSpaceOnUse"
       gradientTransform="matrix(26.180679,0.4451599,0.4451599,-26.180664,434.46875,423.3623)"
       spreadMethod="pad"><stop
         id="stop710"
         style="stop-color:#7fa2d4;stop-opacity:1"
         offset="0" /><stop
         id="stop712"
         style="stop-color:#4084c2;stop-opacity:1"
         offset="0.83706999" /><stop
         id="stop714"
         style="stop-color:#4084c2;stop-opacity:1"
         offset="0.83706999" /><stop
         id="stop716"
         style="stop-color:#006ab4;stop-opacity:1"
         offset="1" /></radialGradient><radialGradient
       cx="0"
       cy="0"
       r="1"
       fx="0"
       fy="0"
       id="radialGradient732"
       gradientUnits="userSpaceOnUse"
       gradientTransform="matrix(26.155441,0.4447327,0.4447327,-26.155441,434.48242,423.36719)"
       spreadMethod="pad"><stop
         id="stop734"
         style="stop-color:#7fa2d4;stop-opacity:1"
         offset="0" /><stop
         id="stop736"
         style="stop-color:#4084c2;stop-opacity:1"
         offset="0.83706999" /><stop
         id="stop738"
         style="stop-color:#4084c2;stop-opacity:1"
         offset="0.83706999" /><stop
         id="stop740"
         style="stop-color:#006ab4;stop-opacity:1"
         offset="1" /></radialGradient><radialGradient
       cx="0"
       cy="0"
       r="1"
       fx="0"
       fy="0"
       id="radialGradient756"
       gradientUnits="userSpaceOnUse"
       gradientTransform="matrix(26.155441,0.4447327,0.4447327,-26.155441,434.48242,423.36719)"
       spreadMethod="pad"><stop
         id="stop758"
         style="stop-color:#7fa2d4;stop-opacity:1"
         offset="0" /><stop
         id="stop760"
         style="stop-color:#4084c2;stop-opacity:1"
         offset="0.83706999" /><stop
         id="stop762"
         style="stop-color:#4084c2;stop-opacity:1"
         offset="0.83706999" /><stop
         id="stop764"
         style="stop-color:#006ab4;stop-opacity:1"
         offset="1" /></radialGradient><radialGradient
       cx="0"
       cy="0"
       r="1"
       fx="0"
       fy="0"
       id="radialGradient780"
       gradientUnits="userSpaceOnUse"
       gradientTransform="matrix(26.170502,0.4449921,0.4449921,-26.170486,434.47656,423.36816)"
       spreadMethod="pad"><stop
         id="stop782"
         style="stop-color:#7fa2d4;stop-opacity:1"
         offset="0" /><stop
         id="stop784"
         style="stop-color:#4084c2;stop-opacity:1"
         offset="0.83706999" /><stop
         id="stop786"
         style="stop-color:#4084c2;stop-opacity:1"
         offset="0.83706999" /><stop
         id="stop788"
         style="stop-color:#006ab4;stop-opacity:1"
         offset="1" /></radialGradient><radialGradient
       cx="0"
       cy="0"
       r="1"
       fx="0"
       fy="0"
       id="radialGradient804"
       gradientUnits="userSpaceOnUse"
       gradientTransform="matrix(26.174118,0.4450531,0.4450531,-26.174118,434.47168,423.36621)"
       spreadMethod="pad"><stop
         id="stop806"
         style="stop-color:#7fa2d4;stop-opacity:1"
         offset="0" /><stop
         id="stop808"
         style="stop-color:#4084c2;stop-opacity:1"
         offset="0.83706999" /><stop
         id="stop810"
         style="stop-color:#4084c2;stop-opacity:1"
         offset="0.83706999" /><stop
         id="stop812"
         style="stop-color:#006ab4;stop-opacity:1"
         offset="1" /></radialGradient><radialGradient
       cx="0"
       cy="0"
       r="1"
       fx="0"
       fy="0"
       id="radialGradient828"
       gradientUnits="userSpaceOnUse"
       gradientTransform="matrix(26.171158,0.4449921,0.4449921,-26.171158,434.47656,423.36523)"
       spreadMethod="pad"><stop
         id="stop830"
         style="stop-color:#7fa2d4;stop-opacity:1"
         offset="0" /><stop
         id="stop832"
         style="stop-color:#4084c2;stop-opacity:1"
         offset="0.83706999" /><stop
         id="stop834"
         style="stop-color:#4084c2;stop-opacity:1"
         offset="0.83706999" /><stop
         id="stop836"
         style="stop-color:#006ab4;stop-opacity:1"
         offset="1" /></radialGradient><radialGradient
       cx="0"
       cy="0"
       r="1"
       fx="0"
       fy="0"
       id="radialGradient852"
       gradientUnits="userSpaceOnUse"
       gradientTransform="matrix(26.174118,0.4450531,0.4450531,-26.174118,434.47168,423.36621)"
       spreadMethod="pad"><stop
         id="stop854"
         style="stop-color:#7fa2d4;stop-opacity:1"
         offset="0" /><stop
         id="stop856"
         style="stop-color:#4084c2;stop-opacity:1"
         offset="0.83706999" /><stop
         id="stop858"
         style="stop-color:#4084c2;stop-opacity:1"
         offset="0.83706999" /><stop
         id="stop860"
         style="stop-color:#006ab4;stop-opacity:1"
         offset="1" /></radialGradient><radialGradient
       cx="0"
       cy="0"
       r="1"
       fx="0"
       fy="0"
       id="radialGradient876"
       gradientUnits="userSpaceOnUse"
       gradientTransform="matrix(26.171158,0.4449921,0.4449921,-26.171158,434.47656,423.36523)"
       spreadMethod="pad"><stop
         id="stop878"
         style="stop-color:#7fa2d4;stop-opacity:1"
         offset="0" /><stop
         id="stop880"
         style="stop-color:#4084c2;stop-opacity:1"
         offset="0.83706999" /><stop
         id="stop882"
         style="stop-color:#4084c2;stop-opacity:1"
         offset="0.83706999" /><stop
         id="stop884"
         style="stop-color:#006ab4;stop-opacity:1"
         offset="1" /></radialGradient><radialGradient
       cx="0"
       cy="0"
       r="1"
       fx="0"
       fy="0"
       id="radialGradient900"
       gradientUnits="userSpaceOnUse"
       gradientTransform="matrix(26.15744,0.4447632,0.4447632,-26.157425,434.47852,423.36768)"
       spreadMethod="pad"><stop
         id="stop902"
         style="stop-color:#7fa2d4;stop-opacity:1"
         offset="0" /><stop
         id="stop904"
         style="stop-color:#4084c2;stop-opacity:1"
         offset="0.83706999" /><stop
         id="stop906"
         style="stop-color:#4084c2;stop-opacity:1"
         offset="0.83706999" /><stop
         id="stop908"
         style="stop-color:#006ab4;stop-opacity:1"
         offset="1" /></radialGradient><radialGradient
       cx="0"
       cy="0"
       r="1"
       fx="0"
       fy="0"
       id="radialGradient924"
       gradientUnits="userSpaceOnUse"
       gradientTransform="matrix(26.173019,0.4450378,0.4450378,-26.173019,434.47852,423.35986)"
       spreadMethod="pad"><stop
         id="stop926"
         style="stop-color:#7fa2d4;stop-opacity:1"
         offset="0" /><stop
         id="stop928"
         style="stop-color:#4084c2;stop-opacity:1"
         offset="0.83706999" /><stop
         id="stop930"
         style="stop-color:#4084c2;stop-opacity:1"
         offset="0.83706999" /><stop
         id="stop932"
         style="stop-color:#006ab4;stop-opacity:1"
         offset="1" /></radialGradient><radialGradient
       cx="0"
       cy="0"
       r="1"
       fx="0"
       fy="0"
       id="radialGradient948"
       gradientUnits="userSpaceOnUse"
       gradientTransform="matrix(26.165482,0.4449005,0.4449005,-26.165482,434.47754,423.36768)"
       spreadMethod="pad"><stop
         id="stop950"
         style="stop-color:#7fa2d4;stop-opacity:1"
         offset="0" /><stop
         id="stop952"
         style="stop-color:#4084c2;stop-opacity:1"
         offset="0.83706999" /><stop
         id="stop954"
         style="stop-color:#4084c2;stop-opacity:1"
         offset="0.83706999" /><stop
         id="stop956"
         style="stop-color:#006ab4;stop-opacity:1"
         offset="1" /></radialGradient><radialGradient
       cx="0"
       cy="0"
       r="1"
       fx="0"
       fy="0"
       id="radialGradient972"
       gradientUnits="userSpaceOnUse"
       gradientTransform="matrix(26.340164,0.447876,0.447876,-26.340164,434.40332,423.37354)"
       spreadMethod="pad"><stop
         id="stop974"
         style="stop-color:#7fa2d4;stop-opacity:1"
         offset="0" /><stop
         id="stop976"
         style="stop-color:#4084c2;stop-opacity:1"
         offset="0.83706999" /><stop
         id="stop978"
         style="stop-color:#4084c2;stop-opacity:1"
         offset="0.83706999" /><stop
         id="stop980"
         style="stop-color:#006ab4;stop-opacity:1"
         offset="1" /></radialGradient><radialGradient
       cx="0"
       cy="0"
       r="1"
       fx="0"
       fy="0"
       id="radialGradient996"
       gradientUnits="userSpaceOnUse"
       gradientTransform="matrix(26.139526,0.444458,0.444458,-26.139526,434.49121,423.36426)"
       spreadMethod="pad"><stop
         id="stop998"
         style="stop-color:#7fa2d4;stop-opacity:1"
         offset="0" /><stop
         id="stop1000"
         style="stop-color:#4084c2;stop-opacity:1"
         offset="0.83706999" /><stop
         id="stop1002"
         style="stop-color:#4084c2;stop-opacity:1"
         offset="0.83706999" /><stop
         id="stop1004"
         style="stop-color:#006ab4;stop-opacity:1"
         offset="1" /></radialGradient><radialGradient
       cx="0"
       cy="0"
       r="1"
       fx="0"
       fy="0"
       id="radialGradient1020"
       gradientUnits="userSpaceOnUse"
       gradientTransform="matrix(26.324234,0.4476013,0.4476013,-26.324234,434.47559,423.12988)"
       spreadMethod="pad"><stop
         id="stop1022"
         style="stop-color:#7fa2d4;stop-opacity:1"
         offset="0" /><stop
         id="stop1024"
         style="stop-color:#4084c2;stop-opacity:1"
         offset="0.83706999" /><stop
         id="stop1026"
         style="stop-color:#4084c2;stop-opacity:1"
         offset="0.83706999" /><stop
         id="stop1028"
         style="stop-color:#006ab4;stop-opacity:1"
         offset="1" /></radialGradient><radialGradient
       cx="0"
       cy="0"
       r="1"
       fx="0"
       fy="0"
       id="radialGradient1044"
       gradientUnits="userSpaceOnUse"
       gradientTransform="matrix(26.324234,0.4476013,0.4476013,-26.324234,434.47559,423.12988)"
       spreadMethod="pad"><stop
         id="stop1046"
         style="stop-color:#7fa2d4;stop-opacity:1"
         offset="0" /><stop
         id="stop1048"
         style="stop-color:#4084c2;stop-opacity:1"
         offset="0.83706999" /><stop
         id="stop1050"
         style="stop-color:#4084c2;stop-opacity:1"
         offset="0.83706999" /><stop
         id="stop1052"
         style="stop-color:#006ab4;stop-opacity:1"
         offset="1" /></radialGradient><radialGradient
       cx="0"
       cy="0"
       r="1"
       fx="0"
       fy="0"
       id="radialGradient1068"
       gradientUnits="userSpaceOnUse"
       gradientTransform="matrix(26.138825,0.4444427,0.4444427,-26.138825,434.48242,423.38281)"
       spreadMethod="pad"><stop
         id="stop1070"
         style="stop-color:#7fa2d4;stop-opacity:1"
         offset="0" /><stop
         id="stop1072"
         style="stop-color:#4084c2;stop-opacity:1"
         offset="0.83706999" /><stop
         id="stop1074"
         style="stop-color:#4084c2;stop-opacity:1"
         offset="0.83706999" /><stop
         id="stop1076"
         style="stop-color:#006ab4;stop-opacity:1"
         offset="1" /></radialGradient><radialGradient
       cx="0"
       cy="0"
       r="1"
       fx="0"
       fy="0"
       id="radialGradient1092"
       gradientUnits="userSpaceOnUse"
       gradientTransform="matrix(26.162872,0.4448547,0.4448547,-26.162872,434.47656,423.36816)"
       spreadMethod="pad"><stop
         id="stop1094"
         style="stop-color:#7fa2d4;stop-opacity:1"
         offset="0" /><stop
         id="stop1096"
         style="stop-color:#4084c2;stop-opacity:1"
         offset="0.83706999" /><stop
         id="stop1098"
         style="stop-color:#4084c2;stop-opacity:1"
         offset="0.83706999" /><stop
         id="stop1100"
         style="stop-color:#006ab4;stop-opacity:1"
         offset="1" /></radialGradient><radialGradient
       cx="0"
       cy="0"
       r="1"
       fx="0"
       fy="0"
       id="radialGradient1116"
       gradientUnits="userSpaceOnUse"
       gradientTransform="matrix(26.208786,0.4456329,0.4456329,-26.208771,434.45215,423.35596)"
       spreadMethod="pad"><stop
         id="stop1118"
         style="stop-color:#7fa2d4;stop-opacity:1"
         offset="0" /><stop
         id="stop1120"
         style="stop-color:#4084c2;stop-opacity:1"
         offset="0.83706999" /><stop
         id="stop1122"
         style="stop-color:#4084c2;stop-opacity:1"
         offset="0.83706999" /><stop
         id="stop1124"
         style="stop-color:#006ab4;stop-opacity:1"
         offset="1" /></radialGradient><radialGradient
       cx="0"
       cy="0"
       r="1"
       fx="0"
       fy="0"
       id="radialGradient1140"
       gradientUnits="userSpaceOnUse"
       gradientTransform="matrix(26.17186,0.4450073,0.4450073,-26.171845,434.48145,423.35303)"
       spreadMethod="pad"><stop
         id="stop1142"
         style="stop-color:#7fa2d4;stop-opacity:1"
         offset="0" /><stop
         id="stop1144"
         style="stop-color:#4084c2;stop-opacity:1"
         offset="0.83706999" /><stop
         id="stop1146"
         style="stop-color:#4084c2;stop-opacity:1"
         offset="0.83706999" /><stop
         id="stop1148"
         style="stop-color:#006ab4;stop-opacity:1"
         offset="1" /></radialGradient><radialGradient
       cx="0"
       cy="0"
       r="1"
       fx="0"
       fy="0"
       id="radialGradient1216"
       gradientUnits="userSpaceOnUse"
       gradientTransform="matrix(6.9997864,0.1191254,0.1191254,-6.9997864,450.87109,432.72559)"
       spreadMethod="pad"><stop
         id="stop1218"
         style="stop-color:#e9202e;stop-opacity:1"
         offset="0" /><stop
         id="stop1220"
         style="stop-color:#ffd225;stop-opacity:1"
         offset="0.20224001" /><stop
         id="stop1222"
         style="stop-color:#e9202e;stop-opacity:1"
         offset="1" /></radialGradient><linearGradient
       x1="0"
       y1="0"
       x2="1"
       y2="0"
       id="linearGradient1246"
       gradientUnits="userSpaceOnUse"
       gradientTransform="matrix(-0.4464111,7.23349,7.23349,0.4464111,443.58594,425.44971)"
       spreadMethod="pad"><stop
         id="stop1248"
         style="stop-color:#244573;stop-opacity:1"
         offset="0" /><stop
         id="stop1250"
         style="stop-color:#244570;stop-opacity:1"
         offset="0.03371" /><stop
         id="stop1252"
         style="stop-color:#006ab4;stop-opacity:1"
         offset="0.35953999" /><stop
         id="stop1254"
         style="stop-color:#006ab4;stop-opacity:1"
         offset="1" /></linearGradient><linearGradient
       x1="0"
       y1="0"
       x2="1"
       y2="0"
       id="linearGradient1316"
       gradientUnits="userSpaceOnUse"
       gradientTransform="matrix(0,9.4219818,9.4219818,0,374.2207,427.58496)"
       spreadMethod="pad"><stop
         id="stop1318"
         style="stop-color:#244573;stop-opacity:1"
         offset="0" /><stop
         id="stop1320"
         style="stop-color:#244570;stop-opacity:1"
         offset="0.03371" /><stop
         id="stop1322"
         style="stop-color:#006ab4;stop-opacity:1"
         offset="0.35953999" /><stop
         id="stop1324"
         style="stop-color:#006ab4;stop-opacity:1"
         offset="1" /></linearGradient><linearGradient
       x1="0"
       y1="0"
       x2="1"
       y2="0"
       id="linearGradient1340"
       gradientUnits="userSpaceOnUse"
       gradientTransform="matrix(0,9.4216614,9.4216614,0,394.5,427.58643)"
       spreadMethod="pad"><stop
         id="stop1342"
         style="stop-color:#244573;stop-opacity:1"
         offset="0" /><stop
         id="stop1344"
         style="stop-color:#244570;stop-opacity:1"
         offset="0.03371" /><stop
         id="stop1346"
         style="stop-color:#006ab4;stop-opacity:1"
         offset="0.35953999" /><stop
         id="stop1348"
         style="stop-color:#006ab4;stop-opacity:1"
         offset="1" /></linearGradient><linearGradient
       x1="0"
       y1="0"
       x2="1"
       y2="0"
       id="linearGradient1364"
       gradientUnits="userSpaceOnUse"
       gradientTransform="matrix(0,9.4216614,9.4216614,0,390.22461,427.58643)"
       spreadMethod="pad"><stop
         id="stop1366"
         style="stop-color:#244573;stop-opacity:1"
         offset="0" /><stop
         id="stop1368"
         style="stop-color:#244570;stop-opacity:1"
         offset="0.03371" /><stop
         id="stop1370"
         style="stop-color:#006ab4;stop-opacity:1"
         offset="0.35953999" /><stop
         id="stop1372"
         style="stop-color:#006ab4;stop-opacity:1"
         offset="1" /></linearGradient><linearGradient
       x1="0"
       y1="0"
       x2="1"
       y2="0"
       id="linearGradient1388"
       gradientUnits="userSpaceOnUse"
       gradientTransform="matrix(0,9.4218903,9.4218903,0,383.97754,427.58496)"
       spreadMethod="pad"><stop
         id="stop1390"
         style="stop-color:#244573;stop-opacity:1"
         offset="0" /><stop
         id="stop1392"
         style="stop-color:#244570;stop-opacity:1"
         offset="0.03371" /><stop
         id="stop1394"
         style="stop-color:#006ab4;stop-opacity:1"
         offset="0.35953999" /><stop
         id="stop1396"
         style="stop-color:#006ab4;stop-opacity:1"
         offset="1" /></linearGradient><linearGradient
       x1="0"
       y1="0"
       x2="1"
       y2="0"
       id="linearGradient1412"
       gradientUnits="userSpaceOnUse"
       gradientTransform="matrix(0,9.4216614,9.4216614,0,427.48828,427.58643)"
       spreadMethod="pad"><stop
         id="stop1414"
         style="stop-color:#244573;stop-opacity:1"
         offset="0" /><stop
         id="stop1416"
         style="stop-color:#244570;stop-opacity:1"
         offset="0.03371" /><stop
         id="stop1418"
         style="stop-color:#006ab4;stop-opacity:1"
         offset="0.35953999" /><stop
         id="stop1420"
         style="stop-color:#006ab4;stop-opacity:1"
         offset="1" /></linearGradient><linearGradient
       x1="0"
       y1="0"
       x2="1"
       y2="0"
       id="linearGradient1436"
       gradientUnits="userSpaceOnUse"
       gradientTransform="matrix(0,9.4218903,9.4218903,0,421.24219,427.58496)"
       spreadMethod="pad"><stop
         id="stop1438"
         style="stop-color:#244573;stop-opacity:1"
         offset="0" /><stop
         id="stop1440"
         style="stop-color:#244570;stop-opacity:1"
         offset="0.03371" /><stop
         id="stop1442"
         style="stop-color:#006ab4;stop-opacity:1"
         offset="0.35953999" /><stop
         id="stop1444"
         style="stop-color:#006ab4;stop-opacity:1"
         offset="1" /></linearGradient><linearGradient
       x1="0"
       y1="0"
       x2="1"
       y2="0"
       id="linearGradient1460"
       gradientUnits="userSpaceOnUse"
       gradientTransform="matrix(0,9.422699,9.422699,0,399.05371,427.58545)"
       spreadMethod="pad"><stop
         id="stop1462"
         style="stop-color:#244573;stop-opacity:1"
         offset="0" /><stop
         id="stop1464"
         style="stop-color:#244570;stop-opacity:1"
         offset="0.03371" /><stop
         id="stop1466"
         style="stop-color:#006ab4;stop-opacity:1"
         offset="0.35953999" /><stop
         id="stop1468"
         style="stop-color:#006ab4;stop-opacity:1"
         offset="1" /></linearGradient><linearGradient
       x1="0"
       y1="0"
       x2="1"
       y2="0"
       id="linearGradient1484"
       gradientUnits="userSpaceOnUse"
       gradientTransform="matrix(0,9.420105,9.420105,0,432.61035,427.58594)"
       spreadMethod="pad"><stop
         id="stop1486"
         style="stop-color:#244573;stop-opacity:1"
         offset="0" /><stop
         id="stop1488"
         style="stop-color:#244570;stop-opacity:1"
         offset="0.03371" /><stop
         id="stop1490"
         style="stop-color:#006ab4;stop-opacity:1"
         offset="0.35953999" /><stop
         id="stop1492"
         style="stop-color:#006ab4;stop-opacity:1"
         offset="1" /></linearGradient><linearGradient
       x1="0"
       y1="0"
       x2="1"
       y2="0"
       id="linearGradient1508"
       gradientUnits="userSpaceOnUse"
       gradientTransform="matrix(0,9.4219818,9.4219818,0,411.62695,427.58496)"
       spreadMethod="pad"><stop
         id="stop1510"
         style="stop-color:#244573;stop-opacity:1"
         offset="0" /><stop
         id="stop1512"
         style="stop-color:#244570;stop-opacity:1"
         offset="0.03371" /><stop
         id="stop1514"
         style="stop-color:#006ab4;stop-opacity:1"
         offset="0.35953999" /><stop
         id="stop1516"
         style="stop-color:#006ab4;stop-opacity:1"
         offset="1" /></linearGradient><clipPath
       id="clipPath1528"><path
         d="m 33,543.236 651.969,0 L 684.969,33 33,33 33,543.236 z"
         id="path1530" /></clipPath><clipPath
       id="clipPath1540"><path
         d="m 358.682,326.258 -334.079,0 0,225.614 334.079,0 0,-225.614 z"
         id="path1542" /></clipPath><clipPath
       id="clipPath1548"><path
         d="m 24.501,579.917 596.628,0 0,-585.92286 -596.628,0 0,585.92286 z"
         id="path1550" /></clipPath><clipPath
       id="clipPath1846"><path
         d="m 33,543.236 651.969,0 L 684.969,33 33,33 33,543.236 z"
         id="path1848" /></clipPath><clipPath
       id="clipPath1918"><path
         d="m 33,543.236 651.969,0 L 684.969,33 33,33 33,543.236 z"
         id="path1920" /></clipPath><clipPath
       id="clipPath1936"><path
         d="m 33,543.236 651.969,0 L 684.969,33 33,33 33,543.236 z"
         id="path1938" /></clipPath><clipPath
       id="clipPath2476"><path
         d="m 33,543.236 651.969,0 L 684.969,33 33,33 33,543.236 z"
         id="path2478" /></clipPath><clipPath
       id="clipPath2496"><path
         d="m 33,543.236 651.969,0 L 684.969,33 33,33 33,543.236 z"
         id="path2498" /></clipPath><clipPath
       id="clipPath2506"><path
         d="m 235.679,62.929 -107.745,0 0,45.386 107.745,0 0,-45.386 z"
         id="path2508" /></clipPath><clipPath
       id="clipPath2600"><path
         d="m 33,543.236 651.969,0 L 684.969,33 33,33 33,543.236 z"
         id="path2602" /></clipPath><linearGradient
       inkscape:collect="always"
       xlink:href="#linearGradient6765"
       id="linearGradient6755"
       x1="132.40166"
       y1="178.6978"
       x2="132.40166"
       y2="163.03426"
       gradientUnits="userSpaceOnUse"
       spreadMethod="pad" /><linearGradient
       inkscape:collect="always"
       xlink:href="#linearGradient7569"
       id="linearGradient7571"
       x1="132.40166"
       y1="163.03426"
       x2="132.40166"
       y2="163.03426"
       gradientUnits="userSpaceOnUse" /></defs><sodipodi:namedview
     id="base"
     pagecolor="#ffffff"
     bordercolor="#666666"
     borderopacity="1.0"
     inkscape:pageopacity="0.0"
     inkscape:pageshadow="2"
     inkscape:zoom="3.959798"
     inkscape:cx="129.93087"
     inkscape:cy="77.781746"
     inkscape:document-units="mm"
     inkscape:current-layer="layer1"
     showgrid="false"
     inkscape:pagecheckerboard="true"
     inkscape:window-width="1920"
     inkscape:window-height="1017"
     inkscape:window-x="-8"
     inkscape:window-y="-8"
     inkscape:window-maximized="1"
     inkscape:showpageshadow="2"
     inkscape:deskcolor="#d1d1d1" /><metadata
     id="metadata3220"><rdf:RDF><cc:Work
         rdf:about=""><dc:format>image/svg+xml</dc:format><dc:type
           rdf:resource="http://purl.org/dc/dcmitype/StillImage" /><dc:title /></cc:Work></rdf:RDF></metadata><g
     inkscape:label="Layer 1"
     inkscape:groupmode="layer"
     id="layer1"
     transform="translate(-56.556041,-109.30405)"><g
       transform="matrix(1.2242976,0,0,1.2242976,-5.222445,-82.533891)"
       id="g2559"
       inkscape:label="Station"
       style="fill:url(#linearGradient7571);fill-opacity:1;stroke-width:1.22519231;stroke-dasharray:none;stroke:url(#linearGradient6755);stroke-opacity:1;fill-rule:nonzero"><path
         inkscape:connector-curvature="0"
         id="path172"
         style="fill:url(#linearGradient7571);fill-opacity:1;fill-rule:nonzero;stroke:url(#linearGradient6755);stroke-width:1.22519231;stroke-dasharray:none;stroke-opacity:1"
         d="m 71.070134,172.95255 -4.734664,0.33077 0.57447,-2.73456 2.139294,-0.14973 -0.376241,1.80924 2.595442,-0.18103 0.930868,-4.44332 -7.330114,0.5118 -1.66358,8.00131 4.734672,-0.33077 -0.773014,3.62025 -2.119829,0.1484 0.475696,-2.23174 -2.614982,0.18237 -1.030327,4.86616 7.330104,-0.5118 z"
         transform="translate(8.508281e-8)" /><path
         inkscape:connector-curvature="0"
         id="path176"
         style="fill:url(#linearGradient7571);fill-opacity:1;fill-rule:nonzero;stroke:url(#linearGradient6755);stroke-width:1.22519231;stroke-dasharray:none;stroke-opacity:1"
         d="m 74.794828,169.99754 2.496095,-0.17422 -2.436556,11.62085 2.595151,-0.182 2.436903,-11.62086 2.496023,-0.17421 0.554678,-2.63441 -7.587516,0.53064 z"
         transform="translate(8.508281e-8)" /><path
         inkscape:connector-curvature="0"
         id="path180"
         style="fill:url(#linearGradient7571);fill-opacity:1;fill-rule:nonzero;stroke:url(#linearGradient6755);stroke-width:1.22519231;stroke-dasharray:none;stroke-opacity:1"
         d="m 87.573322,171.75893 0.554606,-2.69318 2.119754,-0.1484 -0.554978,2.69354 z m 2.832629,8.59803 2.991888,-14.25529 -7.310379,0.51154 -2.99153,14.25493 2.595227,-0.18201 1.327293,-6.27378 2.11968,-0.14839 -1.327288,6.27414 z"
         transform="translate(8.508281e-8)" /><path
         inkscape:connector-curvature="0"
         id="path184"
         style="fill:url(#linearGradient7571);fill-opacity:1;fill-rule:nonzero;stroke:url(#linearGradient6755);stroke-width:1.22519231;stroke-dasharray:none;stroke-opacity:1"
         d="m 98.977684,179.78056 2.436926,-11.62086 2.49608,-0.1752 0.55493,-2.63374 -7.587518,0.53065 -0.554634,2.63373 2.495947,-0.17421 -2.436599,11.6212 z"
         transform="translate(8.508281e-8)" /><path
         inkscape:connector-curvature="0"
         id="path188"
         style="fill:url(#linearGradient7571);fill-opacity:1;fill-rule:nonzero;stroke:url(#linearGradient6755);stroke-width:1.22519231;stroke-dasharray:none;stroke-opacity:1"
         d="m 104.62426,179.38562 2.5951,-0.18101 2.9915,-14.25528 -2.59522,0.182 z"
         transform="translate(8.508281e-8)" /><path
         inkscape:connector-curvature="0"
         id="path192"
         style="fill:url(#linearGradient7571);fill-opacity:1;fill-rule:nonzero;stroke:url(#linearGradient6755);stroke-width:1.22519231;stroke-dasharray:none;stroke-opacity:1"
         d="m 115.73198,167.18138 2.11975,-0.14839 -1.88236,8.98749 -2.11949,0.14838 z m -5.03203,11.80203 7.31001,-0.51042 2.99153,-14.25494 -7.31028,0.51044 z"
         transform="translate(8.508281e-8)" /><path
         inkscape:connector-curvature="0"
         id="path196"
         style="fill:url(#linearGradient7571);fill-opacity:1;fill-rule:nonzero;stroke:url(#linearGradient6755);stroke-width:1.22519231;stroke-dasharray:none;stroke-opacity:1"
         d="m 124.08538,178.07141 1.36653,-6.47511 1.18856,6.29603 2.25853,-0.15792 2.99192,-14.25493 -2.59522,0.18201 -1.36734,6.57353 -1.18854,-6.39514 -2.25854,0.15791 -2.99084,14.25493 z"
         transform="translate(8.508281e-8)" /></g><g
       transform="matrix(1.2036697,0,0,-1.2036697,-392.22127,670.4283)"
       id="Ware"><path
         d="m 436.746,436.184 c -0.768,0.899 -1.975,1.382 -3.4,1.358 -0.647,-0.01 -1.252,-0.122 -1.803,-0.319 -0.316,0.176 -0.678,0.27 -1.047,0.265 -0.242,-0.004 -0.485,-0.042 -0.728,-0.1 -0.323,0.197 -0.687,0.313 -1.07,0.313 h -2.678 c -0.447,0 -0.859,-0.147 -1.2,-0.39 -1.217,0.561 -2.719,0.616 -4.092,0.407 10e-4,0.016 0.004,0.027 0.004,0.027 0.105,0.603 -0.059,1.221 -0.452,1.69 -0.394,0.468 -0.973,0.739 -1.586,0.739 h -3.395 c -0.2,0 -0.391,-0.048 -0.577,-0.103 -0.196,0.061 -0.399,0.103 -0.609,0.103 h -3.379 c -0.205,0 -0.402,-0.047 -0.589,-0.106 -0.198,0.063 -0.406,0.106 -0.617,0.106 h -3.382 c -1.008,0 -1.867,-0.72 -2.041,-1.71 -0.8198,-5.39565 -2.64582,-10.21759 -0.62,-12.558 0.619,-0.726 1.817,-1.581 4.012,-1.546 1.24,0.023 2.216,0.314 2.982,0.716 0.692,-0.376 1.603,-0.635 2.831,-0.614 1.311,0.02 2.378,0.343 3.229,0.843 0.738,-0.635 1.783,-0.972 3.002,-0.95 0.539,0.008 1.059,0.096 1.55,0.24 h 2.628 c 0.128,0 0.252,0.011 0.372,0.034 0.118,-0.021 0.234,-0.034 0.353,-0.034 h 2.697 c 0.724,0 1.367,0.378 1.738,0.956 0.756,-0.637 1.788,-0.976 2.982,-0.955 1.28,0.022 2.642,0.205 3.922,1.393 0.334,0.306 0.556,0.713 0.634,1.157 l 0.228,1.273 c 0.019,0.117 0.028,0.233 0.028,0.349 0,0.253 -0.062,0.494 -0.155,0.723 0.234,0.275 0.418,0.592 0.485,0.967 l 0.026,0.164 c 0.007,-0.006 0.465,2.593 0.465,2.593 0.198,1.116 -0.068,2.17 -0.748,2.969"
         id="path1298"
         style="fill:#003869;fill-opacity:1;fill-rule:nonzero;stroke:none"
         inkscape:label="path1298"
         sodipodi:nodetypes="cccccssccccsscsscssccccccccscsscccccsccccc"
         transform="translate(-2.5826771e-6)" /><path
         d="m 435.653,435.253 c -0.483,0.568 -1.298,0.873 -2.283,0.856 -0.867,-0.014 -1.625,-0.255 -2.205,-0.674 -0.003,0.144 -0.054,0.284 -0.149,0.396 -0.123,0.145 -0.305,0.227 -0.495,0.222 -0.401,-0.005 -0.811,-0.142 -1.197,-0.368 -0.013,0.13 -0.055,0.255 -0.139,0.357 -0.122,0.143 -0.3,0.226 -0.487,0.226 h -2.678 c -0.311,0 -0.576,-0.222 -0.629,-0.526 l -0.112,-0.638 c -0.141,0.228 -0.32,0.435 -0.55,0.606 -1.45,1.097 -4.239,0.721 -5.809,0.015 0.226,1.289 0.402,2.27 0.402,2.27 0.032,0.184 -0.018,0.375 -0.14,0.518 -0.122,0.145 -0.3,0.228 -0.488,0.228 h -3.395 c -0.268,0 -0.495,-0.174 -0.586,-0.42 -0.025,0.07 -0.065,0.135 -0.112,0.192 -0.122,0.145 -0.301,0.228 -0.488,0.228 h -3.379 c -0.282,0 -0.52,-0.191 -0.602,-0.457 -0.023,0.082 -0.058,0.163 -0.116,0.229 -0.12,0.145 -0.302,0.228 -0.488,0.228 h -3.382 c -0.313,0 -0.574,-0.221 -0.629,-0.527 l -1.527,-8.664 c -0.109,-0.624 -0.184,-1.811 0.587,-2.714 0.608,-0.713 1.581,-1.065 2.895,-1.043 1.243,0.024 2.256,0.377 3.039,1.027 0.503,-0.52 1.343,-0.95 2.774,-0.926 1.843,0.031 2.944,0.758 3.605,1.573 0.05,-0.398 0.223,-0.689 0.387,-0.883 0.454,-0.531 1.248,-0.814 2.239,-0.795 0.494,0.007 0.954,0.116 1.38,0.271 0.045,-0.013 0.087,-0.031 0.135,-0.031 h 2.688 c 0.136,0 0.259,0.044 0.363,0.117 0.106,-0.074 0.231,-0.117 0.362,-0.117 h 2.697 c 0.309,0 0.577,0.222 0.63,0.528 0,0 0.798,4.625 0.81,4.697 0.107,0.385 0.481,1.461 1.315,1.709 -0.235,-1.333 -0.757,-4.29 -0.757,-4.29 -0.157,-0.887 0.142,-1.467 0.425,-1.797 0.481,-0.562 1.288,-0.864 2.273,-0.847 1.185,0.02 2.093,0.197 2.976,1.011 0.102,0.095 0.168,0.22 0.194,0.357 l 0.226,1.272 c 0.05,0.289 -0.103,0.576 -0.372,0.695 -0.268,0.116 -0.583,0.036 -0.76,-0.197 -0.307,-0.402 -0.658,-0.492 -0.896,-0.497 -0.291,-0.004 -0.523,0.062 -0.624,0.176 -0.012,0.016 -0.048,0.059 -0.048,0.143 0,0.02 0,0.039 0.005,0.061 0,0 0.108,0.616 0.192,1.085 0.689,0.012 2.243,0.039 2.243,0.039 0.306,0.006 0.565,0.226 0.616,0.528 l 0.029,0.164 c 0.007,0 0.464,2.599 0.464,2.599 0.031,0.166 0.042,0.321 0.042,0.465 0,0.624 -0.239,1.056 -0.471,1.323"
         id="path1302"
         style="fill:#ffffff;fill-opacity:1;fill-rule:nonzero;stroke:none"
         transform="translate(-2.5826771e-6)" /><g
         id="g1400"
         transform="translate(-2.5826771e-6)"><g
           id="g1402"><g
             id="g1408"><g
               id="g1410"><path
                 d="m 428.341,433.552 0.357,2.08 h -2.678 l -1.576,-8.965 h 2.697 l 0.818,4.731 c 0.349,1.286 1.149,2.236 2.259,2.254 l 0.314,1.767 c -0.833,-0.016 -1.834,-0.834 -2.191,-1.867"
                 id="path1422"
                 style="fill:url(#linearGradient1412);stroke:none;stroke-width:1.00027441;stroke-dasharray:none;fill-rule:nonzero" /></g></g></g></g><g
         id="g1424"
         transform="translate(-2.5826771e-6)"><g
           id="g1426"><g
             id="g1432"><g
               id="g1434"><path
                 d="m 419.051,435.086 -0.161,-0.899 c 1.275,0.634 3.539,0.773 3.329,-0.862 -0.364,0.217 -0.867,0.321 -1.424,0.311 -1.223,-0.022 -2.346,-0.568 -2.536,-1.625 l -0.724,-4.039 c -0.19,-1.06 0.743,-1.571 1.967,-1.547 0.561,0.009 1.105,0.132 1.552,0.365 -0.015,-0.08 -0.023,-0.123 -0.023,-0.123 h 2.688 c 0,0 0.799,4.502 1.216,6.832 0.489,2.731 -3.726,2.639 -5.884,1.587 m 1.88,-2.753 -0.821,-4.594 c -0.037,-0.191 -0.172,-0.409 -0.446,-0.415 -0.272,-0.004 -0.316,0.213 -0.28,0.404 l 0.822,4.592 c 0.033,0.193 0.153,0.41 0.427,0.415 0.274,0.005 0.331,-0.21 0.298,-0.402"
                 id="path1446"
                 style="fill:url(#linearGradient1436);stroke:none" /></g></g></g></g><g
         id="g1472"
         transform="translate(-2.5826771e-6)"><g
           id="g1474"><g
             id="g1480"><g
               id="g1482"><path
                 d="m 433.38,435.472 c -1.305,-0.021 -2.516,-0.686 -2.747,-1.98 l -0.867,-4.931 c -0.23,-1.292 0.755,-1.917 2.061,-1.894 1.113,0.018 1.845,0.186 2.553,0.84 l 0.226,1.274 c -0.469,-0.614 -1.043,-0.739 -1.388,-0.747 -0.976,-0.016 -1.412,0.529 -1.308,1.125 l 0.282,1.604 2.77,0.048 0.027,0.164 h 0.008 l 0.459,2.6 c 0.228,1.293 -0.786,1.92 -2.076,1.897 m 0.045,-1.855 -0.277,-1.55 -0.726,-0.013 0.276,1.548 c 0.035,0.212 0.159,0.453 0.434,0.458 0.275,0.004 0.326,-0.233 0.293,-0.443"
                 id="path1494"
                 style="fill:url(#linearGradient1484);stroke:none" /></g></g></g></g><g
         id="g1496"
         transform="translate(-2.5826771e-6)"><g
           id="g1498"><g
             id="g1504"><g
               id="g1506"><path
                 d="m 415.299,438.104 -1.554,-8.854 c -0.047,-0.277 -0.264,-0.595 -0.719,-0.604 -0.453,-0.005 -0.534,0.306 -0.482,0.584 l 1.569,8.874 h -3.379 l -1.583,-8.932 c -0.047,-0.276 -0.236,-0.595 -0.69,-0.604 -0.456,-0.008 -0.562,0.306 -0.511,0.584 l 1.578,8.952 h -3.382 l -1.529,-8.664 c -0.152,-0.849 -0.239,-3.062 2.844,-3.009 1.612,0.029 2.568,0.651 3.138,1.361 0.324,-0.695 1.06,-1.29 2.673,-1.261 3.083,0.053 3.779,2.274 3.93,3.125 l 1.492,8.448 z"
                 id="path1518"
                 style="fill:url(#linearGradient1508);stroke:none" /></g></g></g></g></g></g></svg>
